HIERARCHY
ROOT joint_Root
{
	OFFSET 0.0 0.0 0.0
	CHANNELS 6 Xposition Yposition Zposition Zrotation Xrotation Yrotation 
	JOINT Hips
	{
		OFFSET -17.1583 93.1646 452.98
		CHANNELS 6 Xposition Yposition Zposition Zrotation Xrotation Yrotation 
		JOINT Spine
		{
			OFFSET 15.7357 0.0 0.0
			CHANNELS 6 Xposition Yposition Zposition Zrotation Xrotation Yrotation 
			JOINT Chest
			{
				OFFSET 8.98455 -0.406207 0.0
				CHANNELS 6 Xposition Yposition Zposition Zrotation Xrotation Yrotation 
				JOINT Neck
				{
					OFFSET 16.3773 0.0 0.0
					CHANNELS 6 Xposition Yposition Zposition Zrotation Xrotation Yrotation 
					JOINT Head
					{
						OFFSET 6.45672 0.0 0.0
						CHANNELS 6 Xposition Yposition Zposition Zrotation Xrotation Yrotation 
						End Site
						{
							OFFSET 0.0 0.0 0.0
						}
					}
				}
				JOINT Shoulder_L
				{
					OFFSET 12.9942 -0.242716 4.98039
					CHANNELS 6 Xposition Yposition Zposition Zrotation Xrotation Yrotation 
					JOINT UpperArm_L
					{
						OFFSET 5.34809 0.0 0.0
						CHANNELS 6 Xposition Yposition Zposition Zrotation Xrotation Yrotation 
						JOINT LowerArm_L
						{
							OFFSET 24.3286 1.87007e-05 0.0
							CHANNELS 6 Xposition Yposition Zposition Zrotation Xrotation Yrotation 
							JOINT Hand_L
							{
								OFFSET 22.2916 0.0 0.0
								CHANNELS 6 Xposition Yposition Zposition Zrotation Xrotation Yrotation 
								End Site
								{
									OFFSET 0.0 0.0 0.0
								}
							}
						}
					}
				}
				JOINT Shoulder_R
				{
					OFFSET 12.9945 -0.242716 -4.98039
					CHANNELS 6 Xposition Yposition Zposition Zrotation Xrotation Yrotation 
					JOINT UpperArm_R
					{
						OFFSET -5.34813 0.0 0.0
						CHANNELS 6 Xposition Yposition Zposition Zrotation Xrotation Yrotation 
						JOINT LowerArm_R
						{
							OFFSET -24.3289 0.000322201 0.0
							CHANNELS 6 Xposition Yposition Zposition Zrotation Xrotation Yrotation 
							JOINT Hand_R
							{
								OFFSET -22.2915 -0.000108084 0.0
								CHANNELS 6 Xposition Yposition Zposition Zrotation Xrotation Yrotation 
								End Site
								{
									OFFSET 0.0 0.0 0.0
								}
							}
						}
					}
				}
			}
		}
		JOINT UpperLeg_L
		{
			OFFSET -2.19248 -6.46944 0.0
			CHANNELS 6 Xposition Yposition Zposition Zrotation Xrotation Yrotation 
			JOINT LowerLeg_L
			{
				OFFSET 39.0811 0.0 -1.23785e-05
				CHANNELS 6 Xposition Yposition Zposition Zrotation Xrotation Yrotation 
				JOINT Foot_L
				{
					OFFSET 40.9854 0.0 -1.26872e-05
					CHANNELS 6 Xposition Yposition Zposition Zrotation Xrotation Yrotation 
					JOINT Toes_L
					{
						OFFSET 11.7543 0.0 0.0
						CHANNELS 6 Xposition Yposition Zposition Zrotation Xrotation Yrotation 
						End Site
						{
							OFFSET 0.0 0.0 0.0
						}
					}
				}
			}
		}
		JOINT UpperLeg_R
		{
			OFFSET -2.19251 6.46944 0.0
			CHANNELS 6 Xposition Yposition Zposition Zrotation Xrotation Yrotation 
			JOINT LowerLeg_R
			{
				OFFSET -39.0811 -0.00228153 -0.0401928
				CHANNELS 6 Xposition Yposition Zposition Zrotation Xrotation Yrotation 
				JOINT Foot_R
				{
					OFFSET -40.9854 0.0 0.0
					CHANNELS 6 Xposition Yposition Zposition Zrotation Xrotation Yrotation 
					JOINT Toes_R
					{
						OFFSET -11.7543 0.0 0.0
						CHANNELS 6 Xposition Yposition Zposition Zrotation Xrotation Yrotation 
						End Site
						{
							OFFSET 0.0 0.0 0.0
						}
					}
				}
			}
		}
	}
}
MOTION
Frames:	4
Frame Time:	0.0333333
0.000000 0.000000 0.000000 0.000000 0.000000 -0.000000 2.701400 81.444800 481.573000 -80.270400 0.440709 165.037000 15.735700 0.000005 -0.000001 96.242000 80.447000 -90.341700 8.984550 -0.406207 -0.000000 11.144100 2.236460 11.577700 16.377300 -0.000001 -0.000001 -7.827450 3.568250 0.763154 6.456720 -0.000001 -0.000000 -19.930400 6.313800 -5.015520 12.994200 -0.242716 4.980390 -92.761300 8.525980 -71.979100 5.348090 -0.000007 -0.000001 -68.840200 3.469250 7.853450 24.328600 0.000019 0.000005 6.256200 41.253300 -9.439260 22.291600 -0.000001 0.000005 -17.517300 5.156490 3.784950 12.994500 -0.242716 -4.980390 89.687100 1.116920 -74.349900 -5.348130 -0.000001 -0.000004 -57.170400 12.260800 -22.988400 -24.328900 0.000322 -0.000009 -1.509910 -1.393320 -47.237700 -22.291500 -0.000108 -0.000004 4.394890 5.393370 -2.703120 -2.192480 -6.469440 -0.000000 -168.000000 -3.080250 -26.567000 39.081100 -0.000007 -0.000012 0.168206 -0.021950 82.562500 40.985400 -0.000006 -0.000013 -9.401140 11.714300 -32.233500 11.754300 -0.000000 0.000003 0.001435 0.029284 -15.388900 -2.192510 6.469440 -0.000001 -167.228000 10.919900 149.663000 -39.081100 -0.002282 -0.040193 -0.016222 0.012166 57.952800 -40.985400 0.000008 0.000006 -7.913450 3.861670 -93.666900 -11.754300 -0.000006 -0.000006 0.000047 0.166866 -9.805380
0.000000 0.000000 0.000000 0.000000 0.000000 -0.000000 2.381100 82.634800 475.713000 -82.782300 -0.316920 165.143000 15.735700 0.000005 -0.000001 98.206200 80.228400 -93.220600 8.984550 -0.406207 -0.000000 11.478900 2.928940 9.674140 16.377300 -0.000001 -0.000001 -7.920820 2.618060 0.763015 6.456720 -0.000001 -0.000000 -19.908000 4.674510 -5.127990 12.994200 -0.242716 4.980390 -92.741200 8.148720 -71.335500 5.348090 -0.000007 -0.000001 -64.597200 1.946670 11.419800 24.328600 0.000019 0.000005 5.876740 40.663700 -8.976190 22.291600 -0.000001 0.000005 -12.328800 5.113000 4.801520 12.994500 -0.242716 -4.980390 89.851600 0.530891 -74.387600 -5.348130 -0.000001 -0.000004 -55.330100 10.006200 -24.314300 -24.328900 0.000322 -0.000009 -2.261690 -1.297070 -60.143000 -22.291500 -0.000108 -0.000004 8.705550 5.428770 -3.876530 -2.192480 -6.469440 -0.000000 -170.384000 -1.852110 -36.701900 39.081100 -0.000007 -0.000012 0.149085 -0.002158 89.167200 40.985400 -0.000006 -0.000013 -8.077940 8.364560 -38.160900 11.754300 -0.000000 0.000003 0.001363 0.027460 -15.462800 -2.192510 6.469440 -0.000001 -170.941000 13.928900 156.508000 -39.081100 -0.002282 -0.040193 -0.019819 0.017711 52.470300 -40.985400 0.000008 0.000006 -8.444870 5.626220 -91.876900 -11.754300 -0.000006 -0.000006 0.002009 0.120642 -11.681000
0.000000 0.000000 0.000000 0.000000 0.000000 -0.000000 1.849360 84.587800 469.475000 -86.070300 -0.999498 164.018000 15.735700 0.000005 -0.000001 100.434000 80.543700 -96.685100 8.984550 -0.406207 -0.000000 10.744300 3.497830 7.165080 16.377300 -0.000001 -0.000001 -7.689520 1.756520 0.790308 6.456720 -0.000001 -0.000000 -19.673000 2.867130 -5.095620 12.994200 -0.242716 4.980390 -92.555100 7.395120 -70.878000 5.348090 -0.000007 -0.000001 -60.006600 -0.589549 13.590800 24.328600 0.000019 0.000005 5.340030 39.344200 -8.386670 22.291600 -0.000001 0.000005 -5.907280 5.060880 5.974600 12.994500 -0.242716 -4.980390 89.967300 0.115752 -74.247500 -5.348130 -0.000001 -0.000004 -54.887900 6.870800 -23.914200 -24.328900 0.000322 -0.000009 -4.341600 -1.568890 -70.134500 -22.291500 -0.000108 -0.000004 12.028100 5.467720 -5.270990 -2.192480 -6.469440 -0.000000 -174.154000 -0.913342 -45.398000 39.081100 -0.000007 -0.000012 0.063036 -0.000196 89.813600 40.985400 -0.000006 -0.000013 -5.557640 5.058690 -47.033300 11.754300 -0.000000 0.000003 0.002444 0.072796 -13.624300 -2.192510 6.469440 -0.000001 -175.546000 16.311500 163.451000 -39.081100 -0.002282 -0.040193 -0.019600 0.023583 44.116200 -40.985400 0.000008 0.000006 -9.712380 7.099570 -86.569600 -11.754300 -0.000006 -0.000006 0.001933 0.044228 -14.779100
0.000000 0.000000 0.000000 0.000000 0.000000 -0.000000 1.131830 87.090000 462.899000 -89.909100 -1.106490 161.830000 15.735700 0.000005 -0.000001 103.083000 81.258800 -100.878000 8.984550 -0.406207 -0.000000 9.206030 3.963330 4.088610 16.377300 -0.000001 -0.000001 -7.457780 0.943050 0.706589 6.456720 -0.000001 -0.000000 -18.893000 1.183230 -4.593290 12.994200 -0.242716 4.980390 -92.256600 6.419780 -70.586300 5.348090 -0.000007 -0.000001 -55.152900 -6.498440 14.272500 24.328600 0.000019 0.000005 3.885180 37.164400 -6.413170 22.291600 -0.000001 0.000005 0.151031 4.943690 8.430970 12.994500 -0.242716 -4.980390 90.140900 -0.492745 -74.036900 -5.348130 -0.000001 -0.000004 -56.108800 4.093070 -22.398000 -24.328900 0.000322 -0.000009 -8.094290 -1.897060 -76.872400 -22.291500 -0.000108 -0.000004 13.184000 5.514680 -7.132520 -2.192480 -6.469440 -0.000000 -178.812000 -0.233604 -51.650700 39.081100 -0.000007 -0.000012 0.005291 -0.000524 84.257700 40.985400 -0.000006 -0.000013 -5.017860 2.131230 -56.497700 11.754300 -0.000000 0.000003 0.001997 0.046596 -14.686700 -2.192510 6.469440 -0.000001 179.834000 17.863000 169.219000 -39.081100 -0.002282 -0.040193 0.004911 -0.002351 34.554500 -40.985400 0.000008 0.000006 -9.253410 5.528740 -76.920900 -11.754300 -0.000006 -0.000006 -0.008949 -0.095610 -20.467400
